<svg id="Layer_1" data-name="Layer 1" xmlns="http://www.w3.org/2000/svg" viewBox="0 0 1080 1080"><defs><style>.cls-1{fill:#75d3a1;}.cls-2{fill:#fff;}.cls-3{fill:#54a878;}.cls-4{fill:#50916c;}.cls-5{fill:#4f9e71;}.cls-6{fill:#468c62;}.cls-7{fill:#4a7f5f;}.cls-8{fill:#5db583;}.cls-9{fill:#346047;}.cls-10{fill:#cecece;}</style></defs><title>product</title><path class="cls-1" d="M401.58,1008a3.92,3.92,0,0,0-1.16.24c-21.87,11.82-45.21,13.71-69.33,10.24-30.89-4.46-59.12-16.21-85.84-31.84-52-30.41-94.27-71.37-129.38-120C96.1,839.27,79.76,810,68,778.24c-10.22-27.68-16.7-56.07-15.4-85.82,1.23-28,11-52.44,31.45-72,77.23-74,154.27-148.13,231.88-221.69,47-44.6,95.23-88,145.13-129.47,11.68-9.71,23.75-19,35.61-28.47,6.37-5.11,14.09-5.49,21.67-6.4,6.57-.78,13.16-1.4,19.68-2.43,5-.78,9.28-3.21,13.19-6.48q84.09-70.29,161.19-148.19C732.4,57.06,756,50.79,783,52.77c28.19,2.08,53.95,12.09,78.37,25.7C911.9,106.65,952.19,146,985,193.34c18,25.89,32.36,53.62,41.88,83.75,5.92,18.74,9.63,37.87,9.49,57.6-.14,20.39-4.54,39.55-16.68,56.46-5.63,7.84-13.14,13.69-20.23,20-51.74,46.26-102.57,93.49-151.6,142.64-4.25,4.26-6.61,9.5-8.06,15.15-1.87,7.3-3.46,14.68-5,22.08a46.26,46.26,0,0,1-11.52,22.53c-32.85,36-67.88,69.87-103,103.61-65.88,63.26-133.45,124.69-201,186.15q-45.19,41.14-90.62,82C427.86,986.12,418.76,994.65,401.58,1008Zm92.21-381.57-.05.05,61.41-59.65c-1-.79-1.75-1.32-2.41-2-27.45-26.53-51.1-56.09-70.1-89.22C461.54,438.84,446.34,400,444,357.09c-.89-15.94.57-31.64,5.65-46.82,2.18-6.49,5.2-12.7,7.82-19-.41.32-1,.71-1.46,1.15-14.47,12.82-28.91,25.69-43.42,38.47a81.73,81.73,0,0,0-21.81,30.87c-5.21,12.68-7.52,25.94-8.2,39.58a8.7,8.7,0,0,1-2.46,5.29Q312.72,472.41,245.2,538q-60.9,59.31-121.82,118.59c-1.75,1.7-2.24,3-1,5.26,2.4,4.57,4.45,9.31,6.65,14L235.28,901.65c1.46,3.11,3,6.2,4.6,9.57L496.66,662.77c-4.18-3.85-8-7.28-11.73-10.86a7.28,7.28,0,0,1-2.17-3.56,58.11,58.11,0,0,1-.7-8.65,4.62,4.62,0,0,1,.94-3.08C486.5,633.13,490.17,629.81,493.79,626.43ZM802.42,488.79l.77-.57c-1.26-3.57-2.31-7.24-3.85-10.69a15.77,15.77,0,0,0-3.88-5.22c-3.29-2.93-4.81-6.27-4.23-10.71a10.37,10.37,0,0,0-.62-5.24c-9-20.61-20.63-39.71-33.45-58.11a393.35,393.35,0,0,0-78-83.21c-29.09-23.17-60.59-42.13-96.48-52.93-23.36-7-47.07-10.29-71.27-4.73-23.05,5.29-40.54,18.18-51.6,39.2-10,19-12.14,39.57-10.78,60.6,1.66,25.76,8.63,50.28,18.6,73.93,20.92,49.61,52.07,92.14,90.5,129.56a22.68,22.68,0,0,0,1.93,1.49l29.58-28.62c3.47-3.37,3.49-3.41,7.22-.16,9.11,7.93,18,16.07,27.31,23.82a325.23,325.23,0,0,0,57.12,38.17c25.07,13.23,51.34,22.75,79.72,25.71a4.42,4.42,0,0,1,2.73,1.16c1.68,2,1.08,9.1-.75,11-2.51,2.59-5,5.17-7.56,7.76a7.71,7.71,0,0,0,3.94-.44c24.17-8.48,40.22-25.09,48.5-49.15,8-23.32,7.46-47.15,3.22-71.07a4.31,4.31,0,0,0-2.31-2.43c-4.74-2.29-9.79-4-14.34-6.63-14.88-8.53-29.78-17.06-44.31-26.17-11.54-7.25-22.63-15.24-33.78-23.11-6.31-4.44-6.57-12.39-.87-16.89a13.63,13.63,0,0,1,15.95-1c14.2,9.24,28.21,18.77,42.51,27.86C783.23,477.84,792.91,483.19,802.42,488.79ZM506.76,671.57c-.6.54-1.08.94-1.51,1.37l-36.61,35.75q-76.26,74.4-152.51,148.78-27.87,27.18-55.74,54.36c-1.82,1.76-2.34,3.16-1,5.57,2.35,4.36,4.27,9,6.39,13.44,2,4.17,4,8.34,6.15,12.95L532.8,691.35ZM300.22,967.29l264.63-256-20.73-12.42-16.2,15.8L429.13,811,327.7,910c-11.76,11.48-23.55,22.94-35.25,34.48-.79.78-1.67,2.48-1.34,3.24C293.91,954.13,297,960.43,300.22,967.29ZM593.75,725.18c-4.67-2.14-9-3.87-13.07-6.07-2.58-1.4-4.12-.93-6.13,1Q522.58,771,470.47,821.8q-48,46.89-96.09,93.8c-13.17,12.86-26.39,25.67-39.52,38.56-.9.89-2.05,2.66-1.72,3.47,1.8,4.46,4,8.76,6.33,13.57Q466.78,848,593.75,725.18ZM1025.2,325c-.21-2.84-.41-7.7-1-12.52-3.36-29.5-13.41-56.84-27.2-82.89-21.35-40.32-49.75-75.05-84.26-104.78-25.1-21.61-52.55-39.52-83.87-50.87-20.63-7.49-41.78-12-63.86-8.41-23.38,3.77-40.7,16-50.84,37.63-7.92,16.9-9.11,34.87-7.58,53.12,2.07,24.82,9.51,48.2,20,70.66,22.07,47.35,53.63,87.44,93.51,121,24.94,21,52.1,38.39,83,49.26,20.43,7.18,41.33,11.25,63.06,7.76,22.2-3.57,39.26-14.79,49.76-35C1023,356.55,1025.09,342,1025.2,325ZM618.05,733.76a63.16,63.16,0,0,1-7.41-2.44c-2.42-1.15-3.87-.37-5.62,1.35q-44.79,43.83-89.69,87.54Q460.16,874,405,927.91c-10,9.76-20,19.49-29.94,29.29-.8.79-1.87,2.21-1.63,3a53.21,53.21,0,0,0,3.32,7.05Zm-16.88-97.87c-.12.27-.23.54-.34.82.83.49,1.63,1,2.49,1.47q28.8,14.52,57.61,29c3.89,2,5,3.77,3.87,6.22s-3.22,2.63-7.2.61l-59.39-30.29c-1.07-.54-2.23-.89-3.34-1.33l-.48,1.09,57.41,29.35c-1.35,2.66-2.67,3.28-5.3,1.94-17.58-9-35.24-17.83-52.89-26.69a20.88,20.88,0,0,0-3.07-1l-.32.87c.94.52,1.87,1.07,2.83,1.56l48.19,24.3c3.88,2,7.78,3.87,11.6,5.92a3.56,3.56,0,0,1,1.58,5.27c-1.12,2.11-3,2.34-5,1.37-1.31-.62-2.6-1.28-3.89-1.94q-29.28-14.92-58.57-29.85a21.86,21.86,0,0,0-2.78-1l-.45,1,57.37,29.31c-1.25,2.94-2.72,3.16-5.23,1.88-17.67-9-35.42-17.94-53.15-26.85a16.82,16.82,0,0,0-2.77-.86c-.09.27-.19.53-.28.8.75.46,1.48,1,2.26,1.37q12.45,6.3,24.93,12.56,17.45,8.79,34.89,17.59c2.55,1.3,3.45,3.54,2.28,5.57-1.36,2.38-3.38,2.42-5.6,1.26l-1.38-.71q-30.11-15.36-60.22-30.71a30.74,30.74,0,0,0-3.29-1.21l-.4,1,57.78,29.52c-1.5,1.6-2.67,2.88-3.88,4.13-3.13,3.26-3.55,6.14-1.26,10a19.6,19.6,0,0,0,11.4,9,7.46,7.46,0,0,0,8.39-2.2q27.72-29.07,55.56-58a18.73,18.73,0,0,0,1.33-1.78c-9.63-1.63-15.63-7-18.28-15.22-3.52,3.22-7.43,6.33-10.75,10-2.33,2.57-4.1,2.59-7,1.08-17.27-8.89-34.66-17.58-52-26.29a15.21,15.21,0,0,0-2.88-.85l-.21.85c.43.25.86.52,1.3.74L672,656.66c3.88,2,5,3.76,3.84,6.22s-3.3,2.54-7.23.53q-30-15.28-60-30.55a33,33,0,0,0-3.39-1.31l-.44,1,57.33,29.31c-1.19,2.86-2.68,2.93-5,1.74Q630.79,650.2,604.29,637A23.9,23.9,0,0,0,601.17,635.89Zm-1.49-37.73a6.86,6.86,0,0,0-.77.56Q570.49,628.33,542,657.94c-2.27,2.35-2.48,4.83-1.29,7.64,2.28,5.39,6.38,8.76,11.84,10.6,3.3,1.11,6.11.67,8.69-2,14.66-15.42,29.43-30.73,44.16-46.09,4.25-4.43,8.46-8.9,12.9-13.56C608.78,612.51,602.44,607.46,599.68,598.16Zm99.25-497a11.2,11.2,0,0,0-.56,1.09c-.31.77-.6,1.54-.86,2.32-5.88,17.47-7,35.42-5.2,53.62C695,184.57,702.84,209.54,714,233.5c21.34,45.85,51.65,85,89.27,118.64,26.89,24,56.56,43.76,90.39,56.75,21.25,8.16,43.12,13.05,66.08,11.65,2-.12,3.91-.32,5.86-.55s4.11-.49,6.14-.86c1.79-.32,3.55-.81,5.32-1.23-8.51.51-17,1.37-25.39,1-24.82-1.08-47.86-8.93-70-19.71-30.85-15-58.12-35.2-82.8-58.93-36.78-35.37-66.53-75.74-86.62-122.87-10-23.56-16.83-48-18.19-73.68A126.45,126.45,0,0,1,698.93,101.13ZM572.37,715.39c-2.27-2.47-4-1.51-6.13.54q-22.41,21.9-45,43.63L403.78,873.22q-47.71,46.15-95.44,92.28c-1.16,1.11-2.52,2-4.26,3.38,4.88,1.73,7.84,1.73,11.11-1.49q42.85-42.25,86.05-84.15,78.36-76.47,156.71-153C562.89,725.46,567.57,720.36,572.37,715.39ZM276.12,945.82c3.83.73,6.73,1.94,9.74-1q36.5-35.88,73.2-71.54,84.15-82.1,168.27-164.21c4.27-4.17,8.32-8.54,12.69-13l-3.39-2.25ZM601.57,728.19c-1.66-1.31-3.52-1.19-5.78,1-14.47,14.19-29.1,28.22-43.66,42.31q-49.47,47.91-98.94,95.83Q399.79,919,346.36,970.66c-.75.72-1.41,1.54-2.14,2.35,4.44,2,7.42,1,10.71-2.19q44.88-44.19,90.08-88,68.17-66.52,136.28-133.11C588.29,742.82,594.77,735.42,601.57,728.19ZM244.5,912.87c5.19,2.29,6.37,2.14,9.95-1.34l76.61-74.72L492.91,678.87l10.52-10.3c-1.34-1.14-2.33-2-3.43-2.92ZM627.12,736.34c-2.78-1.69-5-.89-7.15,1.61-1.66,2-3.65,3.65-5.51,5.45L499,855.1Q445.33,907,391.72,958.87c-3.44,3.34-6.62,7-9.88,10.42,3.81,1.6,6.86,1,10.2-2.29,20.48-20.33,41.23-40.38,61.87-60.53q80.38-78.42,160.72-156.89C619,745.35,623,740.77,627.12,736.34ZM808.79,512.61l.87-.75c-1.47-5.67-2.8-11.39-4.53-17a7.81,7.81,0,0,0-3.3-4c-10.91-6.48-22.13-12.47-32.87-19.22-12.67-8-25-16.51-37.39-24.87a12.6,12.6,0,0,0-10.58-2c-3.32.83-6,2.68-6.69,6.15-.62,3.11,1.84,4.87,4,6.42,9.1,6.44,18.08,13.07,27.44,19.12,12,7.79,24.26,15.33,36.68,22.52C791,504,800,508.1,808.79,512.61ZM693.27,702.83l.75.93a12.31,12.31,0,0,0,1.37-.28c9.87-3.07,19.29-7.24,27-14.23,19.39-17.69,38.48-35.71,57.68-53.61a16.06,16.06,0,0,0,1.29-1.55,94.82,94.82,0,0,1-29.93,13.12,10.62,10.62,0,0,0-4.7,2.59c-13.73,13.76-27.31,27.66-41,41.44C701.67,695.24,697.41,699,693.27,702.83ZM708,648.59c0-6.83-10.29-15.43-17-14.26a5,5,0,0,0-4.19,6.38c1.49,6.31,9,12.58,15.53,12.93C705.78,653.83,708,651.86,708,648.59Zm-84.3-41.72c.07-7.28-10.21-15.81-17.1-14.46-2.74.54-4.1,2.13-4,5,.25,7.06,9.95,15.15,17,14.11C622.3,611.08,623.74,609.47,623.67,606.87Z"/><path class="cls-2" d="M68,795.47c-1.66-.09-3.07-.05-4.44-.27-4.5-.72-6.76,3.14-10.06,4.86-2.92,1.51-7.55,1.14-9.84-1.63a22,22,0,0,0,3.4-.2,24.19,24.19,0,0,0,3.3-1.32l-4.69-3.17c1.36-.54,2.06-1.1,2.62-1,3.75.75,6.81-1.18,10.06-2.4.28-.11.65-.34.86-.25,2.76,1.17,5.51,2.35,8.2,3.64C67.71,793.91,67.73,794.76,68,795.47Z"/><path class="cls-2" d="M71.29,848.78c2.39,1.32,4.68,2.43,6.75,3.84.65.45.73,1.73,1.07,2.63a14,14,0,0,1-2.14.68,5.8,5.8,0,0,1-1.51-.22C70.44,855.17,69.52,853.66,71.29,848.78Z"/><path class="cls-2" d="M283.53,1027.58c-.85-1.9-1.68-3.74-2.88-6.4,1.31,0,3-.61,4,0C286.19,1022.1,285.49,1025.76,283.53,1027.58Z"/><path class="cls-3" d="M493.79,626.43c-3.62,3.38-7.29,6.7-10.79,10.19a4.62,4.62,0,0,0-.94,3.08,58.11,58.11,0,0,0,.7,8.65,7.28,7.28,0,0,0,2.17,3.56c3.7,3.58,7.55,7,11.73,10.86L239.88,911.22c-1.62-3.37-3.14-6.46-4.6-9.57L129,675.87c-2.2-4.68-4.25-9.42-6.65-14-1.2-2.28-.71-3.56,1-5.26q61-59.24,121.82-118.59,67.46-65.68,134.88-131.41a8.7,8.7,0,0,0,2.46-5.29c.68-13.64,3-26.9,8.2-39.58a81.73,81.73,0,0,1,21.81-30.87c14.51-12.78,28.95-25.65,43.42-38.47.5-.44,1-.83,1.46-1.15-2.62,6.31-5.64,12.52-7.82,19-5.08,15.18-6.54,30.88-5.65,46.82,2.38,43,17.58,81.75,38.68,118.56,19,33.13,42.65,62.69,70.1,89.22.66.64,1.43,1.17,2.41,2l-61.41,59.65a7.27,7.27,0,0,0-1-2.4c-6.89-7.3-14.18-14.07-23.79-17.75-2.45-.94-4.24-.47-5.52,1.73a3.87,3.87,0,0,0,1.78,5.5c7.53,4,15,8.13,22.67,12C489.61,626.35,491.82,626.15,493.79,626.43Zm-130.63-43c1-1,2.57-2,3.27-3.38,1.08-2.11-.18-3.87-2.05-4.87q-12-6.43-24.12-12.68c-2.36-1.22-4.26-.29-5.38,2s-.23,4.07,1.84,5.19c7.54,4.08,15.1,8.1,22.67,12.12C360.38,582.3,361.46,582.68,363.16,583.41Zm59.78,6.05c-1.1,1.22-2.95,2.35-3.07,3.65a5.51,5.51,0,0,0,2.09,4.46c7.49,4.31,15.16,8.3,22.79,12.35,2.91,1.55,5.28,1.14,6.5-1,1.37-2.35.52-4.59-2.53-6.24q-9.77-5.3-19.62-10.46C427.31,591.3,425.41,590.56,422.94,589.46ZM212.14,784c-.5-.62-1.19-2.19-2.38-2.84q-12.07-6.63-24.35-12.88c-2.13-1.08-4.09-.18-5.15,2s-.25,4,1.74,5.27c.95.6,2,1,3,1.57,6.83,3.65,13.63,7.35,20.5,10.93C208.8,789.82,212.09,788.15,212.14,784ZM416.55,531.15a14.21,14.21,0,0,0-2.64-2.87,62.94,62.94,0,0,0-6.5-3.59c-5.66-3-11.33-5.92-17-8.83-2.42-1.24-4.78-.49-5.73,1.69s-.07,4.35,2.42,5.52c.64.29,1.22.7,1.83,1,7.2,3.84,14.35,7.75,21.61,11.47C413.37,537,416.5,535.1,416.55,531.15ZM165.28,729.56c-1.11,1.15-3,2.22-3.16,3.51-.19,1.47.73,3.9,1.93,4.59,7.6,4.36,15.39,8.39,23.15,12.47,2.76,1.46,5,1,6.24-1.12,1.31-2.27.49-4.61-2.31-6.11q-9.81-5.29-19.68-10.45C169.64,731.5,167.76,730.72,165.28,729.56ZM324.75,566.21c-.62-.67-1.51-2.27-2.87-3-7.77-4.27-15.65-8.34-23.51-12.46-2.4-1.26-4.27-.34-5.47,1.8s-.27,4,1.68,5.27c.93.62,2,1.08,3,1.61,6.83,3.65,13.62,7.36,20.5,10.92C321.45,572.1,324.61,570.52,324.75,566.21ZM258.14,740.46c1-.75,2.35-1.3,3.06-2.28,1.53-2.14.67-4.56-2.15-6.07q-11.84-6.35-23.77-12.52c-2.25-1.17-4-.18-5.19,1.83a3.85,3.85,0,0,0,1.78,5.48q11.41,6.11,22.87,12.16C255.72,739.58,256.8,739.92,258.14,740.46ZM221.37,620.38c-1.1,1.1-3,2.14-3.2,3.43-.21,1.45.68,3.89,1.87,4.58,7.59,4.37,15.38,8.41,23.13,12.5,2.9,1.53,5.25,1,6.45-1.28s.25-4.47-2.65-6q-9.81-5.26-19.68-10.45C225.57,622.23,223.77,621.49,221.37,620.38Zm35.64-45c-.56-.63-1.38-2.17-2.67-2.88-7.87-4.3-15.82-8.43-23.78-12.56a3.55,3.55,0,0,0-5.24,1.65A3.88,3.88,0,0,0,227,567.1c.89.52,1.83.93,2.74,1.42,6.91,3.69,13.78,7.45,20.74,11.05C253.77,581.28,257,579.54,257,575.33ZM363,537.9c-1.16,1.19-3.12,2.31-3.34,3.7a5.41,5.41,0,0,0,2.17,4.47c7.42,4.26,15,8.18,22.61,12.19,3.17,1.68,5.4,1.29,6.7-1.08s.38-4.47-2.79-6.17q-9.69-5.21-19.42-10.32C367.18,539.79,365.39,539,363,537.9ZM331.57,503c-.5-.57-1.3-2.12-2.57-2.81-7.87-4.33-15.83-8.49-23.79-12.64a3.85,3.85,0,0,0-5.43,2c-1,2.26-.19,4,1.82,5.28.85.53,1.81.89,2.7,1.36,7.2,3.82,14.36,7.73,21.63,11.42C328.69,509,331.52,507,331.57,503Zm-103,101.25c1-1,2.79-1.88,3.06-3.12a6.17,6.17,0,0,0-1.33-4.55c-1-1.18-2.76-1.72-4.22-2.49-6.66-3.51-13.32-7-20-10.49-2.44-1.27-4.76-.63-5.82,1.56a3.68,3.68,0,0,0,1.65,5.29c7.79,4.24,15.63,8.39,23.46,12.56C226.2,603.44,227.1,603.68,228.6,604.26Zm-55.65,65c-1.11,1.15-3,2.21-3.11,3.45-.15,1.46.78,3.81,2,4.5,7.6,4.36,15.39,8.39,23.14,12.48,2.94,1.56,5.07,1.05,6.31-1.36s.32-4.36-2.64-5.94c-6.54-3.52-13.09-7-19.67-10.49C177.26,671,175.43,670.29,173,669.21Zm294-18.29c1-1.08,2.57-2,3.16-3.42.93-2.11-.37-3.77-2.27-4.79Q456,636.4,444.05,630.16c-2.33-1.22-4.22-.47-5.48,1.75s-.41,4.21,1.88,5.44q11.32,6.07,22.67,12.09C464.1,650,465.19,650.24,467,650.92ZM215.4,727.85c1.08-1.12,3-2.22,3.21-3.57a5.43,5.43,0,0,0-2.14-4.47c-7.89-4.48-15.95-8.66-24-12.82-2.28-1.17-4.29-.36-5.4,2s-.27,4.1,1.82,5.23q11.43,6.18,22.93,12.22C212.69,726.89,213.68,727.18,215.4,727.85Zm18.29,37.79c1-1,2.5-2,3.07-3.38,1-2.33-.64-3.91-2.59-4.94q-11.76-6.24-23.55-12.39c-2.36-1.22-4.23-.45-5.44,1.8s-.38,4.14,1.65,5.25c7.79,4.26,15.64,8.4,23.48,12.55A25.46,25.46,0,0,0,233.69,765.64Zm12.45-168.77c-1.08,1.18-2.84,2.25-3.08,3.59s.61,3.72,1.72,4.35c7.69,4.4,15.55,8.5,23.39,12.62,2.8,1.47,5.27.81,6.38-1.47s.21-4.25-2.58-5.75q-10.07-5.44-20.2-10.76C250.15,598.6,248.44,597.92,246.14,596.87Zm20.91,76.7c-.63-.65-1.62-2.25-3.05-3-7.69-4.21-15.47-8.25-23.25-12.29-2.2-1.14-4-.41-5.28,1.64a3.89,3.89,0,0,0,1.69,5.53q6.36,3.45,12.75,6.86c3.74,2,7.42,4.09,11.24,5.91C264.2,679.63,267,677.87,267.05,673.57Zm85.69-233.8c-1.11,1.12-2.67,2.08-3.3,3.47-.85,1.86,0,3.67,1.9,4.69q11.45,6.15,22.92,12.25c3,1.62,5.53,1.18,6.71-1.12s.18-4.52-2.93-6.19c-6.27-3.37-12.55-6.74-18.85-10.06C357.3,441.81,355.31,441,352.74,439.77Zm-105,420.83c-.42-.56-1-2.16-2.2-2.79q-12-6.63-24.32-12.86a3.6,3.6,0,0,0-5.2,1.88,3.8,3.8,0,0,0,1.68,5.3c.88.53,1.84.92,2.74,1.41,7,3.75,14,7.56,21,11.23C244.65,866.42,247.67,864.77,247.79,860.6Zm-3.86-40.14c-1.13,1.23-3,2.34-3.13,3.63a5.6,5.6,0,0,0,2.08,4.51c7.41,4.26,15,8.18,22.57,12.18,3.09,1.64,5.61,1.25,6.77-.93,1.28-2.41.25-4.61-3-6.38q-9.4-5.06-18.84-10C248.46,822.44,246.47,821.63,243.93,820.46ZM356.38,479.14a12.83,12.83,0,0,0-2.93-2.81c-7.69-4.21-15.47-8.26-23.24-12.32a4,4,0,0,0-5.51,1.82c-1.09,2.18-.12,4.52,2.25,5.58.92.41,1.78.92,2.67,1.4,6.92,3.71,13.8,7.5,20.78,11.09C353.49,485.48,356.48,483.53,356.38,479.14Zm39.39,20.56c1.13-1.12,2.74-2.06,3.32-3.44.93-2.19-.3-3.95-2.38-5.05-7.85-4.12-15.68-8.27-23.53-12.39a3.92,3.92,0,0,0-5.55,1.61c-1.14,2.17-.34,4.32,2.09,5.62q10.9,5.86,21.81,11.72C392.69,498.39,393.93,498.87,395.77,499.7ZM302.48,748.5c-.58-.64-1.45-2.25-2.8-3-7.77-4.26-15.64-8.34-23.5-12.42-2.2-1.14-4.05-.47-5.33,1.56a4,4,0,0,0,1.61,5.56c1,.56,2,1,3,1.57,6.81,3.66,13.59,7.38,20.44,11C299.23,754.5,302.36,752.89,302.48,748.5Zm-52.06,7.15c-1.12,1.17-3,2.25-3.28,3.66s.88,3.14,1.88,4.35c.79,1,2.31,1.27,3.49,1.91,6.64,3.56,13.25,7.18,19.92,10.69,3.07,1.62,6,.46,6.63-2.49.49-2.46-1-3.84-2.95-4.88-6.74-3.6-13.48-7.21-20.24-10.77C254.34,757.31,252.71,756.68,250.42,755.65Zm48.36-47c-1.1,1.06-2.71,2-3.34,3.34-.91,2,.1,3.82,2.08,4.89q11.3,6.06,22.62,12.07c3,1.62,5.66,1.22,6.77-1s.11-4.7-2.82-6.27q-9.54-5.1-19.12-10.13C303.17,710.58,301.29,709.78,298.78,708.61Zm32.66-38.56c1.13-1.14,3.1-2.24,3.31-3.6a5.43,5.43,0,0,0-2.1-4.52c-7.9-4.47-15.95-8.66-24-12.77a3.68,3.68,0,0,0-5.43,1.9c-1.09,2.3-.2,4.12,1.83,5.23,7.7,4.19,15.45,8.28,23.19,12.39C329,669.11,329.89,669.4,331.44,670.05ZM183.83,647.77c-.49-.62-1.14-2.21-2.31-2.86q-12.08-6.6-24.35-12.83c-2.14-1.1-4.08-.21-5.19,1.91a4,4,0,0,0,2,5.44q1.36.69,2.7,1.41c7,3.75,14,7.56,21,11.21C180.6,653.52,183.69,651.65,183.83,647.77Zm208,28.32c-1.11,1.11-2.95,2.11-3.18,3.39s.6,3.73,1.71,4.37c7.87,4.51,15.9,8.74,23.95,12.91a4.52,4.52,0,0,0,3.74.19c1.13-.69,2.45-2.39,2.33-3.5a6.13,6.13,0,0,0-2.65-4c-6.54-3.74-13.23-7.2-19.91-10.7C396.12,677.82,394.29,677.16,391.83,676.09ZM179.83,606c-1.07,1.16-2.83,2.22-3,3.53s.85,3.12,1.76,4.41c.58.82,1.91,1.08,2.9,1.61,6.91,3.7,13.79,7.45,20.73,11.09,2.72,1.42,5.32.6,6.19-1.84.94-2.63-.36-4.32-2.61-5.52-6.73-3.59-13.44-7.22-20.19-10.77C184,607.66,182.23,607,179.83,606Zm101.42,65.74c-1.11,1.22-3,2.34-3.07,3.6a5.65,5.65,0,0,0,2.16,4.48c7.41,4.26,15,8.16,22.56,12.19,3.12,1.66,5.43,1.33,6.73-1s.28-4.58-2.74-6.2c-6.45-3.48-12.89-7-19.37-10.36C285.73,673.53,283.81,672.84,281.25,671.74Zm7-61.42c-1.14,1.15-3.05,2.2-3.19,3.45-.16,1.47.79,3.85,2,4.54,7.51,4.31,15.21,8.28,22.87,12.31,3.17,1.68,5.37,1.24,6.65-1.16,1.15-2.17.18-4.42-2.71-6Q304,618.19,294.17,613C292.47,612.1,290.66,611.41,288.22,610.32Zm4.11,161.46c-1.05,1-2.89,2-3.05,3.16-.21,1.53.44,4.11,1.56,4.75,7.86,4.5,15.91,8.66,24,12.83,2.48,1.29,4.86.57,5.79-1.61,1.06-2.49.24-4.39-2.14-5.66-6.83-3.64-13.63-7.31-20.47-10.91C296.35,773.48,294.63,772.82,292.33,771.78Zm56.2-110.37c-1.12,1.11-3,2.14-3.24,3.44s.64,3.92,1.81,4.6c7.59,4.36,15.38,8.39,23.14,12.47,2.83,1.49,5.36.93,6.48-1.24s.29-4.42-2.64-6q-9.81-5.28-19.67-10.46C352.69,663.31,350.91,662.54,348.53,661.41Zm57.62-63.86c1-.93,2.68-1.75,3.12-3s-.23-2.92-.86-4.18c-.39-.79-1.6-1.22-2.5-1.7q-11.07-5.85-22.16-11.66c-2.41-1.26-4.72-.69-5.84,1.43s-.3,4.41,2.08,5.69q11.17,6,22.37,11.94A38,38,0,0,0,406.15,597.55Zm-177,223.23c-.42-.53-1.09-2.07-2.26-2.71-8-4.36-16-8.57-24-12.73a3.88,3.88,0,0,0-5.45,2c-.93,2.26-.15,4,1.9,5.25.87.51,1.8.93,2.69,1.4,7,3.74,14,7.55,21,11.2C226.2,826.78,229.17,825,229.19,820.78ZM349.58,541.22c-.42-.58-1-2.13-2.08-2.73-8.14-4.45-16.34-8.8-24.62-13a3.62,3.62,0,0,0-5.17,2,3.8,3.8,0,0,0,1.89,5.25c4.07,2.18,8.16,4.34,12.23,6.52,3.82,2,7.59,4.2,11.47,6.13C346.4,547,349.55,545.16,349.58,541.22Zm-.72,165.52c.95-.89,2.55-1.7,3-3,.87-2.25-.1-4.16-2.37-5.35-7.85-4.11-15.66-8.29-23.51-12.4-2.34-1.22-4.23-.42-5.49,1.76-1.15,2-.33,4.3,1.84,5.47q11.44,6.12,22.9,12.2A29.68,29.68,0,0,0,348.86,706.74Zm-108.5-4c1.06-1.17,2.63-2.26,3.24-3.73.89-2.17-.64-3.69-2.51-4.69q-11.75-6.24-23.53-12.44a4.06,4.06,0,1,0-3.75,7.2q11.33,6.06,22.69,12.05C237.49,701.61,238.57,702,240.36,702.7Zm116.05-56.25c1.09-1.16,3-2.29,3.22-3.68a5.43,5.43,0,0,0-2.13-4.49c-7.9-4.47-15.95-8.65-24-12.76-2.22-1.13-4.28-.42-5.41,2s-.12,4.11,1.88,5.21c7.7,4.19,15.47,8.28,23.22,12.39C354,645.53,354.85,645.81,356.41,646.45Zm-229.7,13.66a25.69,25.69,0,0,0,2.35,2.72,9.68,9.68,0,0,0,2.18,1.1c7.07,3.83,14.12,7.71,21.21,11.51,2.3,1.23,4.49,1,5.9-1.42,1.23-2.1.77-4.21-1.34-5.35q-12.37-6.72-24.92-13.1C129.54,654.28,126.81,656.3,126.71,660.11ZM254.09,797.28c-.32-.46-.82-1.91-1.81-2.46-8.12-4.45-16.28-8.84-24.56-13a3.71,3.71,0,0,0-5.41,2c-1,2.45.09,4.18,2.31,5.32.82.42,1.62.86,2.43,1.29,7,3.75,13.95,7.57,21,11.21C251.12,803.27,254.13,801.38,254.09,797.28Zm45.76-207.52c-.56-.62-1.38-2.16-2.67-2.86-7.86-4.31-15.82-8.43-23.76-12.59-2.24-1.17-4-.42-5.27,1.6a3.86,3.86,0,0,0,1.59,5.54c.9.51,1.83,1,2.73,1.44,6.91,3.7,13.78,7.46,20.74,11.06C296.54,595.67,299.83,594,299.85,589.76Zm95.7,127.63c-.47-.53-1.27-2-2.52-2.74-7.87-4.31-15.83-8.45-23.78-12.6-2.24-1.17-4-.28-5.29,1.67a3.87,3.87,0,0,0,1.69,5.52c1.07.59,2.19,1.12,3.27,1.7,6.73,3.61,13.43,7.28,20.2,10.8C392.55,723.52,395.52,721.92,395.55,717.39Zm-49.71,47.34c-.43-.56-1-2.07-2.13-2.67q-12.21-6.66-24.59-13C317,748,315.2,749,314.21,751a3.78,3.78,0,0,0,1.5,5.35c.86.54,1.82.93,2.72,1.41,7,3.75,14,7.56,21,11.21C342.76,770.67,345.94,768.88,345.84,764.73ZM356,599.44c-1.08,1.16-2.95,2.26-3.1,3.56a5.47,5.47,0,0,0,2,4.5c7.61,4.36,15.41,8.4,23.18,12.47,2.92,1.53,5.07.94,6.29-1.49,1.14-2.27.34-4.22-2.5-5.76q-9.94-5.36-20-10.63C360.19,601.19,358.36,600.5,356,599.44Zm17.31,36.94c-1.08,1.12-2.88,2.15-3.13,3.47s.57,3.75,1.67,4.37c7.75,4.43,15.68,8.55,23.58,12.71,2.79,1.47,5.14.83,6.31-1.52,1.07-2.18.25-4.17-2.59-5.72q-10-5.48-20.15-10.8C377.35,638,375.62,637.41,373.27,636.38ZM306.72,528.14c-.66-.69-1.64-2.34-3.08-3.13-7.67-4.2-15.44-8.22-23.2-12.24-2.18-1.13-4.05-.49-5.33,1.54a4,4,0,0,0,1.56,5.58c.8.47,1.65.84,2.47,1.27,7,3.75,13.95,7.55,21,11.22C303.49,534.15,306.66,532.54,306.72,528.14Zm67.75-10.46c-.41-.59-.94-2.17-2-2.76q-12.19-6.69-24.59-13c-2-1-4.11-.29-5.22,1.92a4.07,4.07,0,0,0,2.05,5.47c.73.35,1.47.68,2.19,1.06,7.08,3.8,14.12,7.67,21.25,11.39C371.2,523.37,374.34,521.62,374.47,517.68Zm-36.15,90.89c1.07-1.09,2.95-2.13,3.14-3.41.21-1.45-.65-3.92-1.82-4.58-8-4.53-16.1-8.79-24.28-12.94a3.68,3.68,0,0,0-5.39,2c-1,2.33-.09,4.06,1.95,5.17,7.53,4.08,15.08,8.09,22.64,12.1C335.55,607.46,336.61,607.83,338.32,608.57Zm-111.66,51.8c-.52-.62-1.25-2.13-2.44-2.78-8-4.35-16-8.56-24.07-12.71-2.35-1.21-4.29-.25-5.39,2s-.06,4,1.92,5.19c.88.53,1.84.91,2.75,1.4,6.81,3.67,13.59,7.41,20.44,11C223.37,666.34,226.65,664.67,226.66,660.37ZM405.82,552.62c-1.07,1.06-2.58,1.94-3.11,3.22a3.58,3.58,0,0,0,1.68,4.79c7.79,4.18,15.58,8.37,23.4,12.5,2.83,1.5,5.18.91,6.37-1.43s.29-4.27-2.47-5.77q-9.79-5.31-19.65-10.52C410.24,554.46,408.33,553.73,405.82,552.62ZM256.42,695.18c-1.11,1.21-2.9,2.28-3.11,3.61a5.13,5.13,0,0,0,1.84,4.33c7.67,4.4,15.5,8.5,23.34,12.6,1,.54,2.55,1.06,3.44.68a5.84,5.84,0,0,0,3-3c.69-2-.35-3.73-2.37-4.79-6.85-3.59-13.66-7.27-20.51-10.87C260.44,696.87,258.72,696.21,256.42,695.18ZM253.19,535.4c-1,1-2.58,1.89-3.13,3.18a3.71,3.71,0,0,0,1.85,5c7.75,4.13,15.47,8.3,23.24,12.39,2.67,1.4,5,.82,6.22-1.31s.39-4.42-2.29-5.87q-10.21-5.55-20.52-10.94C257,537,255.41,536.4,253.19,535.4Zm-105,157.36c-1.13,1.11-3,2.13-3.19,3.38-.19,1.44.71,3.83,1.89,4.51,7.58,4.39,15.35,8.43,23.08,12.54,2.86,1.53,5.19,1,6.39-1.26s.28-4.49-2.57-6c-6.27-3.37-12.54-6.75-18.84-10C153,694.82,150.92,694,148.23,692.76Zm250-80c-1.11,1.15-3.06,2.25-3.26,3.6s1.13,3.16,2.12,4.53c.52.72,1.74.92,2.62,1.4,7.11,3.79,14.18,7.66,21.34,11.35a3.89,3.89,0,0,0,5.76-2.75c.49-2.24-.69-3.72-2.59-4.74-6.83-3.65-13.65-7.33-20.5-10.95C402.22,614.41,400.58,613.81,398.26,612.78ZM367.47,746.52c1-1,2.52-1.93,3-3.23a3.82,3.82,0,0,0-2-5q-12-6.33-24.09-12.64c-2.24-1.16-4.05-.36-5.29,1.62a3.93,3.93,0,0,0,1.66,5.55q11.44,6.14,22.92,12.23A36,36,0,0,0,367.47,746.52Zm74.62-72.26c1-1.13,2.81-2.2,3.05-3.54s-.61-3.74-1.72-4.36q-12.12-6.84-24.58-13.05c-2.13-1.07-4.34-.23-5.34,2.24-.87,2.16,0,3.88,1.91,4.94q11.56,6.24,23.18,12.38C439.49,673.34,440.48,673.63,442.09,674.26ZM297.52,811.62c-.47-.55-1.19-2-2.38-2.69q-11.92-6.54-24-12.73c-2.17-1.12-4.18-.27-5.26,1.82a3.7,3.7,0,0,0,1.57,5.31c1,.57,2,1,3,1.55,6.91,3.72,13.78,7.5,20.73,11.13C294.45,817.73,297.57,815.94,297.52,811.62ZM263.4,633.94c-1.09,1-3,2-3.21,3.25-.21,1.47.93,3.26,1.84,4.69.47.73,1.73.94,2.62,1.41,7.1,3.79,14.16,7.64,21.29,11.34,2.61,1.35,5.37.16,5.91-2.34.59-2.67-.82-4.24-3-5.41-6.48-3.42-12.91-6.91-19.4-10.31C267.7,635.68,265.88,635,263.4,633.94ZM383.19,427.81a6.16,6.16,0,0,0,.35-1.2c-.17-1.84-.39-3.67-.55-5.5-.25-2.82-2.12-4.76-4.92-4.36a5.08,5.08,0,0,0-3.58,2.56,4.71,4.71,0,0,0,1.15,4.24C377.82,425.27,380.5,426.36,383.19,427.81Z"/><path class="cls-4" d="M802.42,488.79c-9.51-5.6-19.19-11-28.51-16.86-14.3-9.09-28.31-18.62-42.51-27.86a13.63,13.63,0,0,0-15.95,1c-5.7,4.5-5.44,12.45.87,16.89,11.15,7.87,22.24,15.86,33.78,23.11,14.53,9.11,29.43,17.64,44.31,26.17,4.55,2.61,9.6,4.34,14.34,6.63a4.31,4.31,0,0,1,2.31,2.43c4.24,23.92,4.82,47.75-3.22,71.07-8.28,24.06-24.33,40.67-48.5,49.15a7.71,7.71,0,0,1-3.94.44c2.52-2.59,5.05-5.17,7.56-7.76,1.83-1.88,2.43-9,.75-11a4.42,4.42,0,0,0-2.73-1.16c-28.38-3-54.65-12.48-79.72-25.71a325.23,325.23,0,0,1-57.12-38.17c-9.27-7.75-18.2-15.89-27.31-23.82-3.73-3.25-3.75-3.21-7.22.16L560,562.16a22.68,22.68,0,0,1-1.93-1.49c-38.43-37.42-69.58-79.95-90.5-129.56-10-23.65-16.94-48.17-18.6-73.93-1.36-21,.77-41.6,10.78-60.6,11.06-21,28.55-33.91,51.6-39.2,24.2-5.56,47.91-2.3,71.27,4.73,35.89,10.8,67.39,29.76,96.48,52.93a393.35,393.35,0,0,1,78,83.21c12.82,18.4,24.47,37.5,33.45,58.11a10.37,10.37,0,0,1,.62,5.24c-.58,4.44.94,7.78,4.23,10.71a15.77,15.77,0,0,1,3.88,5.22c1.54,3.45,2.59,7.12,3.85,10.69Z"/><path class="cls-3" d="M506.76,671.57l26,19.78L271.89,943.79c-2.19-4.61-4.18-8.78-6.15-12.95-2.12-4.49-4-9.08-6.39-13.44-1.3-2.41-.78-3.81,1-5.57q27.93-27.12,55.74-54.36,76.25-74.4,152.51-148.78l36.61-35.75C505.68,672.51,506.16,672.11,506.76,671.57Z"/><path class="cls-3" d="M300.22,967.29c-3.24-6.86-6.31-13.16-9.11-19.57-.33-.76.55-2.46,1.34-3.24,11.7-11.54,23.49-23,35.25-34.48l101.43-99,98.79-96.37,16.2-15.8,20.73,12.42Z"/><path class="cls-3" d="M593.75,725.18q-127.33,123.18-254.28,246c-2.3-4.81-4.53-9.11-6.33-13.57-.33-.81.82-2.58,1.72-3.47,13.13-12.89,26.35-25.7,39.52-38.56q48.06-46.89,96.09-93.8Q522.54,771,574.55,720.15c2-2,3.55-2.44,6.13-1C584.75,721.31,589.08,723,593.75,725.18Z"/><path class="cls-5" d="M1025.2,325c-.11,17-2.23,31.56-9.22,45-10.5,20.2-27.56,31.42-49.76,35-21.73,3.49-42.63-.58-63.06-7.76-30.95-10.87-58.11-28.28-83-49.26-39.88-33.57-71.44-73.66-93.51-121-10.46-22.46-17.9-45.84-20-70.66-1.53-18.25-.34-36.22,7.58-53.12,10.14-21.66,27.46-33.86,50.84-37.63,22.08-3.56,43.23.92,63.86,8.41,31.32,11.35,58.77,29.26,83.87,50.87,34.51,29.73,62.91,64.46,84.26,104.78,13.79,26,23.84,53.39,27.2,82.89C1024.79,317.29,1025,322.15,1025.2,325Zm-2,1.19c-.17-3.72-.21-7.45-.54-11.15-2.19-24.49-9.41-47.59-19.7-69.76C981,198,949.33,158.1,909.78,124.39,885.53,103.73,859,86.66,828.93,75.67c-20.11-7.35-40.72-11.88-62.29-8.39-26,4.21-43.74,18.64-52.24,43.67-6.32,18.59-5.68,37.67-2.3,56.72,4.26,24,12.83,46.58,24.08,68.13,21.1,40.46,49.44,75.24,83.63,105.29,25.51,22.43,53.62,40.78,85.72,52.48,19.05,6.94,38.61,11,59,8.38,23.83-3.11,41.45-15.11,51.4-37.35C1021.38,352.41,1023.21,339.46,1023.18,326.18Z"/><path class="cls-3" d="M618.05,733.76,376.78,967.21a53.21,53.21,0,0,1-3.32-7.05c-.24-.75.83-2.17,1.63-3,10-9.8,20-19.53,29.94-29.29q55.14-53.85,110.3-107.7,44.83-43.77,89.69-87.54c1.75-1.72,3.2-2.5,5.62-1.35A63.16,63.16,0,0,0,618.05,733.76Z"/><path class="cls-3" d="M601.17,635.89a23.9,23.9,0,0,1,3.12,1.07q26.46,13.29,52.88,26.68c2.34,1.19,3.83,1.12,5-1.74l-57.33-29.31.44-1a33,33,0,0,1,3.39,1.31q30,15.25,60,30.55c3.93,2,6.11,1.84,7.23-.53s0-4.26-3.84-6.22L612.53,626.6c-.44-.22-.87-.49-1.3-.74l.21-.85a15.21,15.21,0,0,1,2.88.85c17.36,8.71,34.75,17.4,52,26.29,2.94,1.51,4.71,1.49,7-1.08,3.32-3.65,7.23-6.76,10.75-10,2.65,8.21,8.65,13.59,18.28,15.22a18.73,18.73,0,0,1-1.33,1.78q-27.78,29-55.56,58a7.46,7.46,0,0,1-8.39,2.2,19.6,19.6,0,0,1-11.4-9c-2.29-3.89-1.87-6.77,1.26-10,1.21-1.25,2.38-2.53,3.88-4.13l-57.78-29.52.4-1a30.74,30.74,0,0,1,3.29,1.21Q606.9,681.14,637,696.52l1.38.71c2.22,1.16,4.24,1.12,5.6-1.26,1.17-2,.27-4.27-2.28-5.57q-17.43-8.83-34.89-17.59-12.46-6.28-24.93-12.56c-.78-.4-1.51-.91-2.26-1.37.09-.27.19-.53.28-.8a16.82,16.82,0,0,1,2.77.86c17.73,8.91,35.48,17.81,53.15,26.85,2.51,1.28,4,1.06,5.23-1.88L583.68,654.6l.45-1a21.86,21.86,0,0,1,2.78,1q29.3,14.9,58.57,29.85c1.29.66,2.58,1.32,3.89,1.94,2.06,1,3.93.74,5-1.37a3.56,3.56,0,0,0-1.58-5.27c-3.82-2.05-7.72-4-11.6-5.92l-48.19-24.3c-1-.49-1.89-1-2.83-1.56l.32-.87a20.88,20.88,0,0,1,3.07,1c17.65,8.86,35.31,17.69,52.89,26.69,2.63,1.34,4,.72,5.3-1.94l-57.41-29.35.48-1.09c1.11.44,2.27.79,3.34,1.33L657.6,674c4,2,6.06,1.81,7.2-.61s0-4.26-3.87-6.22q-28.8-14.51-57.61-29c-.86-.44-1.66-1-2.49-1.47C600.94,636.43,601.05,636.16,601.17,635.89Z"/><path class="cls-3" d="M599.68,598.16c2.76,9.3,9.1,14.35,18.66,16.33-4.44,4.66-8.65,9.13-12.9,13.56-14.73,15.36-29.5,30.67-44.16,46.09-2.58,2.71-5.39,3.15-8.69,2-5.46-1.84-9.56-5.21-11.84-10.6-1.19-2.81-1-5.29,1.29-7.64q28.49-29.57,56.87-59.22A6.86,6.86,0,0,1,599.68,598.16Z"/><path class="cls-5" d="M698.93,101.13a126.45,126.45,0,0,0-4.84,42.59c1.36,25.71,8.14,50.12,18.19,73.68,20.09,47.13,49.84,87.5,86.62,122.87,24.68,23.73,52,43.89,82.8,58.93,22.11,10.78,45.15,18.63,70,19.71,8.41.36,16.88-.5,25.39-1-1.77.42-3.53.91-5.32,1.23-2,.37-4.08.62-6.14.86s-3.9.43-5.86.55c-23,1.4-44.83-3.49-66.08-11.65-33.83-13-63.5-32.73-90.39-56.75-37.62-33.6-67.93-72.79-89.27-118.64-11.16-24-19-48.93-21.69-75.34-1.83-18.2-.68-36.15,5.2-53.62.26-.78.55-1.55.86-2.32A11.2,11.2,0,0,1,698.93,101.13Z"/><path class="cls-6" d="M572.37,715.39c-4.8,5-9.48,10.07-14.42,14.89q-78.32,76.51-156.71,153-43.08,42-86.05,84.15c-3.27,3.22-6.23,3.22-11.11,1.49,1.74-1.37,3.1-2.27,4.26-3.38q47.73-46.12,95.44-92.28L521.26,759.56q22.51-21.79,45-43.63C568.34,713.88,570.1,712.92,572.37,715.39Z"/><path class="cls-6" d="M276.12,945.82,536.63,693.76,540,696c-4.37,4.5-8.42,8.87-12.69,13q-84.11,82.13-168.27,164.21Q322.43,909,285.86,944.8C282.85,947.76,280,946.55,276.12,945.82Z"/><path class="cls-6" d="M601.57,728.19c-6.8,7.23-13.28,14.63-20.28,21.49q-68,66.66-136.28,133.11-45.06,44-90.08,88c-3.29,3.24-6.27,4.23-10.71,2.19.73-.81,1.39-1.63,2.14-2.35Q399.78,919,453.19,867.35q49.49-47.9,98.94-95.83c14.56-14.09,29.19-28.12,43.66-42.31C598.05,727,599.91,726.88,601.57,728.19Z"/><path class="cls-6" d="M244.5,912.87,500,665.65c1.1,1,2.09,1.78,3.43,2.92l-10.52,10.3L331.06,836.81l-76.61,74.72C250.87,915,249.69,915.16,244.5,912.87Z"/><path class="cls-6" d="M627.12,736.34c-4.16,4.43-8.16,9-12.49,13.24q-80.32,78.49-160.72,156.89C433.27,926.62,412.52,946.67,392,967c-3.34,3.32-6.39,3.89-10.2,2.29,3.26-3.46,6.44-7.08,9.88-10.42Q445.3,906.94,499,855.1L614.46,743.4c1.86-1.8,3.85-3.49,5.51-5.45C622.08,735.45,624.34,734.65,627.12,736.34Z"/><path class="cls-7" d="M808.79,512.61C800,508.1,791,504,782.45,499c-12.42-7.19-24.64-14.73-36.68-22.52-9.36-6.05-18.34-12.68-27.44-19.12-2.19-1.55-4.65-3.31-4-6.42.69-3.47,3.37-5.32,6.69-6.15a12.6,12.6,0,0,1,10.58,2c12.42,8.36,24.72,16.91,37.39,24.87,10.74,6.75,22,12.74,32.87,19.22a7.81,7.81,0,0,1,3.3,4c1.73,5.59,3.06,11.31,4.53,17Z"/><path class="cls-8" d="M693.27,702.83c4.14-3.85,8.4-7.59,12.39-11.59,13.71-13.78,27.29-27.68,41-41.44a10.62,10.62,0,0,1,4.7-2.59,94.82,94.82,0,0,0,29.93-13.12,16.06,16.06,0,0,1-1.29,1.55c-19.2,17.9-38.29,35.92-57.68,53.61-7.66,7-17.08,11.16-27,14.23a12.31,12.31,0,0,1-1.37.28Z"/><path class="cls-9" d="M708,648.59c0,3.27-2.19,5.24-5.66,5-6.5-.35-14-6.62-15.53-12.93a5,5,0,0,1,4.19-6.38C697.68,633.16,707.94,641.76,708,648.59Z"/><path class="cls-9" d="M623.67,606.87c.07,2.6-1.37,4.21-4.13,4.61-7,1-16.72-7.05-17-14.11-.1-2.83,1.26-4.42,4-5C613.46,591.06,623.74,599.59,623.67,606.87Z"/><path class="cls-2" d="M493.79,626.43c-2-.28-4.18-.08-5.87-.92-7.64-3.82-15.14-7.92-22.67-12a3.87,3.87,0,0,1-1.78-5.5c1.28-2.2,3.07-2.67,5.52-1.73,9.61,3.68,16.9,10.45,23.79,17.75a7.27,7.27,0,0,1,1,2.4Z"/><path class="cls-2" d="M363.16,583.41c-1.7-.73-2.78-1.11-3.77-1.63-7.57-4-15.13-8-22.67-12.12-2.07-1.12-3-2.93-1.84-5.19s3-3.21,5.38-2q12.11,6.24,24.12,12.68c1.87,1,3.13,2.76,2.05,4.87C365.73,581.4,364.21,582.36,363.16,583.41Z"/><path class="cls-2" d="M422.94,589.46c2.47,1.1,4.37,1.84,6.16,2.79q9.86,5.16,19.62,10.46c3,1.65,3.9,3.89,2.53,6.24-1.22,2.11-3.59,2.52-6.5,1-7.63-4-15.3-8-22.79-12.35a5.51,5.51,0,0,1-2.09-4.46C420,591.81,421.84,590.68,422.94,589.46Z"/><path class="cls-2" d="M212.14,784c0,4.12-3.34,5.79-6.64,4.07-6.87-3.58-13.67-7.28-20.5-10.93-1-.53-2.05-1-3-1.57-2-1.26-2.84-3-1.74-5.27s3-3.1,5.15-2q12.27,6.24,24.35,12.88C211,781.84,211.64,783.41,212.14,784Z"/><path class="cls-2" d="M416.55,531.15c-.05,4-3.18,5.89-6,4.42-7.26-3.72-14.41-7.63-21.61-11.47-.61-.33-1.19-.74-1.83-1-2.49-1.17-3.41-3.24-2.42-5.52s3.31-2.93,5.73-1.69c5.7,2.91,11.37,5.87,17,8.83a62.94,62.94,0,0,1,6.5,3.59A14.21,14.21,0,0,1,416.55,531.15Z"/><path class="cls-2" d="M165.28,729.56c2.48,1.16,4.36,1.94,6.17,2.89q9.87,5.17,19.68,10.45c2.8,1.5,3.62,3.84,2.31,6.11-1.23,2.11-3.48,2.58-6.24,1.12-7.76-4.08-15.55-8.11-23.15-12.47-1.2-.69-2.12-3.12-1.93-4.59C162.28,731.78,164.17,730.71,165.28,729.56Z"/><path class="cls-2" d="M324.75,566.21c-.14,4.31-3.3,5.89-6.7,4.13-6.88-3.56-13.67-7.27-20.5-10.92-1-.53-2-1-3-1.61-1.95-1.29-2.92-3.07-1.68-5.27s3.07-3.06,5.47-1.8c7.86,4.12,15.74,8.19,23.51,12.46C323.24,563.94,324.13,565.54,324.75,566.21Z"/><path class="cls-2" d="M258.14,740.46c-1.34-.54-2.42-.88-3.4-1.4q-11.46-6-22.87-12.16a3.85,3.85,0,0,1-1.78-5.48c1.19-2,2.94-3,5.19-1.83q11.92,6.18,23.77,12.52c2.82,1.51,3.68,3.93,2.15,6.07C260.49,739.16,259.18,739.71,258.14,740.46Z"/><path class="cls-2" d="M221.37,620.38c2.4,1.11,4.2,1.85,5.92,2.75q9.87,5.18,19.68,10.45c2.9,1.56,3.84,3.79,2.65,6s-3.55,2.81-6.45,1.28c-7.75-4.09-15.54-8.13-23.13-12.5-1.19-.69-2.08-3.13-1.87-4.58C218.36,622.52,220.27,621.48,221.37,620.38Z"/><path class="cls-2" d="M257,575.33c0,4.21-3.24,5.95-6.54,4.24-7-3.6-13.83-7.36-20.74-11.05-.91-.49-1.85-.9-2.74-1.42a3.88,3.88,0,0,1-1.67-5.56,3.55,3.55,0,0,1,5.24-1.65c8,4.13,15.91,8.26,23.78,12.56C255.63,573.16,256.45,574.7,257,575.33Z"/><path class="cls-2" d="M363,537.9c2.42,1.13,4.21,1.89,5.93,2.79q9.74,5.12,19.42,10.32c3.17,1.7,4.09,3.81,2.79,6.17s-3.53,2.76-6.7,1.08c-7.57-4-15.19-7.93-22.61-12.19a5.41,5.41,0,0,1-2.17-4.47C359.85,540.21,361.81,539.09,363,537.9Z"/><path class="cls-2" d="M331.57,503c-.05,4-2.88,6-5.64,4.59-7.27-3.69-14.43-7.6-21.63-11.42-.89-.47-1.85-.83-2.7-1.36-2-1.25-2.8-3-1.82-5.28a3.85,3.85,0,0,1,5.43-2c8,4.15,15.92,8.31,23.79,12.64C330.27,500.89,331.07,502.44,331.57,503Z"/><path class="cls-2" d="M228.6,604.26c-1.5-.58-2.4-.82-3.2-1.24-7.83-4.17-15.67-8.32-23.46-12.56a3.68,3.68,0,0,1-1.65-5.29c1.06-2.19,3.38-2.83,5.82-1.56,6.68,3.46,13.34,7,20,10.49,1.46.77,3.25,1.31,4.22,2.49a6.17,6.17,0,0,1,1.33,4.55C231.39,602.38,229.61,603.29,228.6,604.26Z"/><path class="cls-2" d="M173,669.21c2.48,1.08,4.31,1.74,6,2.64,6.58,3.45,13.13,7,19.67,10.49,3,1.58,3.84,3.6,2.64,5.94s-3.37,2.92-6.31,1.36c-7.75-4.09-15.54-8.12-23.14-12.48-1.2-.69-2.13-3-2-4.5C170,671.42,171.84,670.36,173,669.21Z"/><path class="cls-2" d="M467,650.92c-1.78-.68-2.87-1-3.85-1.48q-11.36-6-22.67-12.09c-2.29-1.23-3.05-3.37-1.88-5.44s3.15-3,5.48-1.75q11.94,6.21,23.81,12.55c1.9,1,3.2,2.68,2.27,4.79C469.54,648.87,468,649.84,467,650.92Z"/><path class="cls-2" d="M215.4,727.85c-1.72-.67-2.71-1-3.6-1.43q-11.49-6.06-22.93-12.22c-2.09-1.13-2.89-3-1.82-5.23s3.12-3.15,5.4-2c8.07,4.16,16.13,8.34,24,12.82a5.43,5.43,0,0,1,2.14,4.47C218.43,725.63,216.48,726.73,215.4,727.85Z"/><path class="cls-2" d="M233.69,765.64a25.46,25.46,0,0,1-3.38-1.11c-7.84-4.15-15.69-8.29-23.48-12.55-2-1.11-2.87-3-1.65-5.25s3.08-3,5.44-1.8q11.79,6.15,23.55,12.39c2,1,3.55,2.61,2.59,4.94C236.19,763.64,234.66,764.62,233.69,765.64Z"/><path class="cls-2" d="M246.14,596.87c2.3,1,4,1.73,5.63,2.58q10.12,5.32,20.2,10.76c2.79,1.5,3.65,3.57,2.58,5.75s-3.58,2.94-6.38,1.47c-7.84-4.12-15.7-8.22-23.39-12.62-1.11-.63-2-3-1.72-4.35S245.06,598.05,246.14,596.87Z"/><path class="cls-2" d="M267.05,673.57c-.07,4.3-2.85,6.06-5.9,4.61-3.82-1.82-7.5-3.91-11.24-5.91q-6.37-3.4-12.75-6.86a3.89,3.89,0,0,1-1.69-5.53c1.24-2,3.08-2.78,5.28-1.64,7.78,4,15.56,8.08,23.25,12.29C265.43,671.32,266.42,672.92,267.05,673.57Z"/><path class="cls-2" d="M352.74,439.77c2.57,1.21,4.56,2,6.45,3,6.3,3.32,12.58,6.69,18.85,10.06,3.11,1.67,4.12,3.86,2.93,6.19s-3.69,2.74-6.71,1.12q-11.47-6.1-22.92-12.25c-1.89-1-2.75-2.83-1.9-4.69C350.07,441.85,351.63,440.89,352.74,439.77Z"/><path class="cls-2" d="M247.79,860.6c-.12,4.17-3.14,5.82-6.3,4.17-7-3.67-14-7.48-21-11.23-.9-.49-1.86-.88-2.74-1.41a3.8,3.8,0,0,1-1.68-5.3,3.6,3.6,0,0,1,5.2-1.88q12.25,6.24,24.32,12.86C246.75,858.44,247.37,860,247.79,860.6Z"/><path class="cls-2" d="M243.93,820.46c2.54,1.17,4.53,2,6.42,3q9.45,5,18.84,10c3.28,1.77,4.31,4,3,6.38-1.16,2.18-3.68,2.57-6.77.93-7.56-4-15.16-7.92-22.57-12.18a5.6,5.6,0,0,1-2.08-4.51C240.93,822.8,242.8,821.69,243.93,820.46Z"/><path class="cls-2" d="M356.38,479.14c.1,4.39-2.89,6.34-6,4.76-7-3.59-13.86-7.38-20.78-11.09-.89-.48-1.75-1-2.67-1.4-2.37-1.06-3.34-3.4-2.25-5.58a4,4,0,0,1,5.51-1.82c7.77,4.06,15.55,8.11,23.24,12.32A12.83,12.83,0,0,1,356.38,479.14Z"/><path class="cls-2" d="M395.77,499.7c-1.84-.83-3.08-1.31-4.24-1.93q-10.92-5.83-21.81-11.72c-2.43-1.3-3.23-3.45-2.09-5.62a3.92,3.92,0,0,1,5.55-1.61c7.85,4.12,15.68,8.27,23.53,12.39,2.08,1.1,3.31,2.86,2.38,5.05C398.51,497.64,396.9,498.58,395.77,499.7Z"/><path class="cls-2" d="M302.48,748.5c-.12,4.39-3.25,6-6.57,4.26-6.85-3.6-13.63-7.32-20.44-11-1-.54-2-1-3-1.57a4,4,0,0,1-1.61-5.56c1.28-2,3.13-2.7,5.33-1.56,7.86,4.08,15.73,8.16,23.5,12.42C301,746.25,301.9,747.86,302.48,748.5Z"/><path class="cls-2" d="M250.42,755.65c2.29,1,3.92,1.66,5.45,2.47,6.76,3.56,13.5,7.17,20.24,10.77,1.95,1,3.44,2.42,2.95,4.88-.59,3-3.56,4.11-6.63,2.49-6.67-3.51-13.28-7.13-19.92-10.69-1.18-.64-2.7-1-3.49-1.91-1-1.21-2.16-3.06-1.88-4.35S249.3,756.82,250.42,755.65Z"/><path class="cls-2" d="M298.78,708.61c2.51,1.17,4.39,2,6.19,2.91q9.58,5,19.12,10.13c2.93,1.57,4,4,2.82,6.27s-3.73,2.61-6.77,1q-11.33-6-22.62-12.07c-2-1.07-3-2.89-2.08-4.89C296.07,710.58,297.68,709.67,298.78,708.61Z"/><path class="cls-2" d="M331.44,670.05c-1.55-.65-2.43-.94-3.24-1.37-7.74-4.11-15.49-8.2-23.19-12.39-2-1.11-2.92-2.93-1.83-5.23a3.68,3.68,0,0,1,5.43-1.9c8.09,4.11,16.14,8.3,24,12.77a5.43,5.43,0,0,1,2.1,4.52C334.54,667.81,332.57,668.91,331.44,670.05Z"/><path class="cls-2" d="M183.83,647.77c-.14,3.88-3.23,5.75-6.07,4.28-7.06-3.65-14-7.46-21-11.21q-1.33-.72-2.7-1.41a4,4,0,0,1-2-5.44c1.11-2.12,3.05-3,5.19-1.91q12.27,6.24,24.35,12.83C182.69,645.56,183.34,647.15,183.83,647.77Z"/><path class="cls-2" d="M391.83,676.09c2.46,1.07,4.29,1.73,6,2.63,6.68,3.5,13.37,7,19.91,10.7a6.13,6.13,0,0,1,2.65,4c.12,1.11-1.2,2.81-2.33,3.5a4.52,4.52,0,0,1-3.74-.19c-8.05-4.17-16.08-8.4-23.95-12.91-1.11-.64-2-3-1.71-4.37S390.72,677.2,391.83,676.09Z"/><path class="cls-2" d="M179.83,606c2.4,1,4.13,1.66,5.74,2.51,6.75,3.55,13.46,7.18,20.19,10.77,2.25,1.2,3.55,2.89,2.61,5.52-.87,2.44-3.47,3.26-6.19,1.84-6.94-3.64-13.82-7.39-20.73-11.09-1-.53-2.32-.79-2.9-1.61-.91-1.29-2-3.05-1.76-4.41S178.76,607.16,179.83,606Z"/><path class="cls-2" d="M281.25,671.74c2.56,1.1,4.48,1.79,6.27,2.73,6.48,3.4,12.92,6.88,19.37,10.36,3,1.62,4,3.94,2.74,6.2s-3.61,2.64-6.73,1c-7.54-4-15.15-7.93-22.56-12.19a5.65,5.65,0,0,1-2.16-4.48C278.27,674.08,280.14,673,281.25,671.74Z"/><path class="cls-2" d="M288.22,610.32c2.44,1.09,4.25,1.78,5.95,2.67q9.87,5.19,19.66,10.49c2.89,1.56,3.86,3.81,2.71,6-1.28,2.4-3.48,2.84-6.65,1.16-7.66-4-15.36-8-22.87-12.31-1.2-.69-2.15-3.07-2-4.54C285.17,612.52,287.08,611.47,288.22,610.32Z"/><path class="cls-2" d="M292.33,771.78c2.3,1,4,1.7,5.64,2.56,6.84,3.6,13.64,7.27,20.47,10.91,2.38,1.27,3.2,3.17,2.14,5.66-.93,2.18-3.31,2.9-5.79,1.61-8-4.17-16.09-8.33-24-12.83-1.12-.64-1.77-3.22-1.56-4.75C289.44,773.75,291.28,772.8,292.33,771.78Z"/><path class="cls-2" d="M348.53,661.41c2.38,1.13,4.16,1.9,5.88,2.81q9.85,5.19,19.67,10.46c2.93,1.58,3.82,3.72,2.64,6s-3.65,2.73-6.48,1.24c-7.76-4.08-15.55-8.11-23.14-12.47-1.17-.68-2-3.16-1.81-4.6S347.41,662.52,348.53,661.41Z"/><path class="cls-2" d="M406.15,597.55a38,38,0,0,1-3.79-1.48q-11.21-5.93-22.37-11.94c-2.38-1.28-3.2-3.58-2.08-5.69s3.43-2.69,5.84-1.43q11.08,5.82,22.16,11.66c.9.48,2.11.91,2.5,1.7.63,1.26,1.27,3,.86,4.18S407.18,596.62,406.15,597.55Z"/><path class="cls-2" d="M229.19,820.78c0,4.24-3,6-6.12,4.38-7-3.65-14-7.46-21-11.2-.89-.47-1.82-.89-2.69-1.4-2-1.23-2.83-3-1.9-5.25a3.88,3.88,0,0,1,5.45-2c8,4.16,16.08,8.37,24,12.73C228.1,818.71,228.77,820.25,229.19,820.78Z"/><path class="cls-2" d="M349.58,541.22c0,3.94-3.18,5.74-6.28,4.21-3.88-1.93-7.65-4.09-11.47-6.13-4.07-2.18-8.16-4.34-12.23-6.52a3.8,3.8,0,0,1-1.89-5.25,3.62,3.62,0,0,1,5.17-2c8.28,4.18,16.48,8.53,24.62,13C348.59,539.09,349.16,540.64,349.58,541.22Z"/><path class="cls-2" d="M348.86,706.74a29.68,29.68,0,0,1-3.6-1.27q-11.47-6.06-22.9-12.2c-2.17-1.17-3-3.5-1.84-5.47,1.26-2.18,3.15-3,5.49-1.76,7.85,4.11,15.66,8.29,23.51,12.4,2.27,1.19,3.24,3.1,2.37,5.35C351.41,705,349.81,705.85,348.86,706.74Z"/><path class="cls-2" d="M240.36,702.7c-1.79-.74-2.87-1.09-3.86-1.61q-11.37-6-22.69-12.05a4.06,4.06,0,1,1,3.75-7.2q11.77,6.2,23.53,12.44c1.87,1,3.4,2.52,2.51,4.69C243,700.44,241.42,701.53,240.36,702.7Z"/><path class="cls-2" d="M356.41,646.45c-1.56-.64-2.45-.92-3.26-1.34-7.75-4.11-15.52-8.2-23.22-12.39-2-1.1-3-2.88-1.88-5.21s3.19-3.12,5.41-2c8.09,4.11,16.14,8.29,24,12.76a5.43,5.43,0,0,1,2.13,4.49C359.43,644.16,357.5,645.29,356.41,646.45Z"/><path class="cls-2" d="M126.71,660.11c.1-3.81,2.83-5.83,5.38-4.54q12.56,6.36,24.92,13.1c2.11,1.14,2.57,3.25,1.34,5.35-1.41,2.4-3.6,2.65-5.9,1.42-7.09-3.8-14.14-7.68-21.21-11.51a9.68,9.68,0,0,1-2.18-1.1A25.69,25.69,0,0,1,126.71,660.11Z"/><path class="cls-2" d="M254.09,797.28c0,4.1-3,6-6.05,4.4-7-3.64-14-7.46-21-11.21-.81-.43-1.61-.87-2.43-1.29-2.22-1.14-3.3-2.87-2.31-5.32a3.71,3.71,0,0,1,5.41-2c8.28,4.15,16.44,8.54,24.56,13C253.27,795.37,253.77,796.82,254.09,797.28Z"/><path class="cls-2" d="M299.85,589.76c0,4.19-3.31,5.91-6.64,4.19-7-3.6-13.83-7.36-20.74-11.06-.9-.48-1.83-.93-2.73-1.44a3.86,3.86,0,0,1-1.59-5.54c1.24-2,3-2.77,5.27-1.6,7.94,4.16,15.9,8.28,23.76,12.59C298.47,587.6,299.29,589.14,299.85,589.76Z"/><path class="cls-2" d="M395.55,717.39c0,4.53-3,6.13-6.43,4.35-6.77-3.52-13.47-7.19-20.2-10.8-1.08-.58-2.2-1.11-3.27-1.7a3.87,3.87,0,0,1-1.69-5.52c1.25-2,3.05-2.84,5.29-1.67,7.95,4.15,15.91,8.29,23.78,12.6C394.28,715.34,395.08,716.86,395.55,717.39Z"/><path class="cls-2" d="M345.84,764.73c.1,4.15-3.08,5.94-6.41,4.21-7-3.65-14-7.46-21-11.21-.9-.48-1.86-.87-2.72-1.41a3.78,3.78,0,0,1-1.5-5.35c1-2,2.83-3,4.91-1.89q12.38,6.33,24.59,13C344.8,762.66,345.41,764.17,345.84,764.73Z"/><path class="cls-2" d="M356,599.44c2.4,1.06,4.23,1.75,5.94,2.65q10,5.25,20,10.63c2.84,1.54,3.64,3.49,2.5,5.76-1.22,2.43-3.37,3-6.29,1.49-7.77-4.07-15.57-8.11-23.18-12.47a5.47,5.47,0,0,1-2-4.5C353,601.7,354.88,600.6,356,599.44Z"/><path class="cls-2" d="M373.27,636.38c2.35,1,4.08,1.66,5.69,2.51q10.11,5.34,20.15,10.8c2.84,1.55,3.66,3.54,2.59,5.72-1.17,2.35-3.52,3-6.31,1.52-7.9-4.16-15.83-8.28-23.58-12.71-1.1-.62-1.92-3-1.67-4.37S372.19,637.5,373.27,636.38Z"/><path class="cls-2" d="M306.72,528.14c-.06,4.4-3.23,6-6.6,4.24-7-3.67-14-7.47-21-11.22-.82-.43-1.67-.8-2.47-1.27a4,4,0,0,1-1.56-5.58c1.28-2,3.15-2.67,5.33-1.54,7.76,4,15.53,8,23.2,12.24C305.08,525.8,306.06,527.45,306.72,528.14Z"/><path class="cls-2" d="M374.47,517.68c-.13,3.94-3.27,5.69-6.33,4.09-7.13-3.72-14.17-7.59-21.25-11.39-.72-.38-1.46-.71-2.19-1.06a4.07,4.07,0,0,1-2.05-5.47c1.11-2.21,3.2-2.94,5.22-1.92q12.42,6.27,24.59,13C373.53,515.51,374.06,517.09,374.47,517.68Z"/><path class="cls-2" d="M338.32,608.57c-1.71-.74-2.77-1.11-3.76-1.63-7.56-4-15.11-8-22.64-12.1-2-1.11-3-2.84-1.95-5.17a3.68,3.68,0,0,1,5.39-2c8.18,4.15,16.31,8.41,24.28,12.94,1.17.66,2,3.13,1.82,4.58C341.27,606.44,339.39,607.48,338.32,608.57Z"/><path class="cls-2" d="M226.66,660.37c0,4.3-3.29,6-6.79,4.13-6.85-3.6-13.63-7.34-20.44-11-.91-.49-1.87-.87-2.75-1.4-2-1.21-3-2.92-1.92-5.19s3-3.23,5.39-2c8.07,4.15,16.11,8.36,24.07,12.71C225.41,658.24,226.14,659.75,226.66,660.37Z"/><path class="cls-2" d="M405.82,552.62c2.51,1.11,4.42,1.84,6.22,2.79q9.85,5.19,19.65,10.52c2.76,1.5,3.59,3.57,2.47,5.77s-3.54,2.93-6.37,1.43c-7.82-4.13-15.61-8.32-23.4-12.5a3.58,3.58,0,0,1-1.68-4.79C403.24,554.56,404.75,553.68,405.82,552.62Z"/><path class="cls-2" d="M256.42,695.18c2.3,1,4,1.69,5.64,2.54,6.85,3.6,13.66,7.28,20.51,10.87,2,1.06,3.06,2.75,2.37,4.79a5.84,5.84,0,0,1-3,3c-.89.38-2.42-.14-3.44-.68-7.84-4.1-15.67-8.2-23.34-12.6a5.13,5.13,0,0,1-1.84-4.33C253.52,697.46,255.31,696.39,256.42,695.18Z"/><path class="cls-2" d="M253.19,535.4c2.22,1,3.84,1.64,5.37,2.45q10.29,5.42,20.52,10.94c2.68,1.45,3.49,3.74,2.29,5.87s-3.55,2.71-6.22,1.31c-7.77-4.09-15.49-8.26-23.24-12.39a3.71,3.71,0,0,1-1.85-5C250.61,537.29,252.15,536.41,253.19,535.4Z"/><path class="cls-2" d="M148.23,692.76c2.69,1.22,4.78,2.06,6.76,3.1,6.3,3.3,12.57,6.68,18.84,10,2.85,1.53,3.77,3.74,2.57,6s-3.53,2.79-6.39,1.26c-7.73-4.11-15.5-8.15-23.08-12.54-1.18-.68-2.08-3.07-1.89-4.51C145.21,694.89,147.1,693.87,148.23,692.76Z"/><path class="cls-2" d="M398.26,612.78c2.32,1,4,1.63,5.49,2.44,6.85,3.62,13.67,7.3,20.5,10.95,1.9,1,3.08,2.5,2.59,4.74a3.89,3.89,0,0,1-5.76,2.75c-7.16-3.69-14.23-7.56-21.34-11.35-.88-.48-2.1-.68-2.62-1.4-1-1.37-2.33-3.13-2.12-4.53S397.15,613.93,398.26,612.78Z"/><path class="cls-2" d="M367.47,746.52a36,36,0,0,1-3.8-1.44q-11.48-6.08-22.92-12.23a3.93,3.93,0,0,1-1.66-5.55c1.24-2,3.05-2.78,5.29-1.62q12.06,6.29,24.09,12.64a3.82,3.82,0,0,1,2,5C370,744.59,368.46,745.5,367.47,746.52Z"/><path class="cls-2" d="M442.09,674.26c-1.61-.63-2.6-.92-3.5-1.39q-11.61-6.15-23.18-12.38c-2-1.06-2.78-2.78-1.91-4.94,1-2.47,3.21-3.31,5.34-2.24q12.44,6.23,24.58,13.05c1.11.62,2,3,1.72,4.36S443.13,673.13,442.09,674.26Z"/><path class="cls-2" d="M297.52,811.62c.05,4.32-3.07,6.11-6.37,4.39-6.95-3.63-13.82-7.41-20.73-11.13-1-.53-2-1-3-1.55a3.7,3.7,0,0,1-1.57-5.31c1.08-2.09,3.09-2.94,5.26-1.82q12.09,6.21,24,12.73C296.33,809.58,297.05,811.07,297.52,811.62Z"/><path class="cls-2" d="M263.4,633.94c2.48,1.07,4.3,1.74,6,2.63,6.49,3.4,12.92,6.89,19.4,10.31,2.22,1.17,3.63,2.74,3,5.41-.54,2.5-3.3,3.69-5.91,2.34-7.13-3.7-14.19-7.55-21.29-11.34-.89-.47-2.15-.68-2.62-1.41-.91-1.43-2-3.22-1.84-4.69C260.37,636,262.31,635,263.4,633.94Z"/><path class="cls-2" d="M383.19,427.81c-2.69-1.45-5.37-2.54-7.55-4.26a4.71,4.71,0,0,1-1.15-4.24,5.08,5.08,0,0,1,3.58-2.56c2.8-.4,4.67,1.54,4.92,4.36.16,1.83.38,3.66.55,5.5A6.16,6.16,0,0,1,383.19,427.81Z"/><path class="cls-2" d="M1023.18,326.18c0,13.28-1.8,26.23-7.26,38.42-9.95,22.24-27.57,34.24-51.4,37.35-20.38,2.66-39.94-1.44-59-8.38-32.1-11.7-60.21-30.05-85.72-52.48-34.19-30-62.53-64.83-83.63-105.29-11.25-21.55-19.82-44.11-24.08-68.13-3.38-19-4-38.13,2.3-56.72,8.5-25,26.23-39.46,52.24-43.67,21.57-3.49,42.18,1,62.29,8.39,30.08,11,56.6,28.06,80.85,48.72C949.33,158.1,981,198,1002.94,245.27c10.29,22.17,17.51,45.27,19.7,69.76C1023,318.73,1023,322.46,1023.18,326.18ZM844.4,238.59c5.29,0,9.81-2.68,11.49-6.92,1.61-4,.41-8.76-3.3-12.07-22-19.62-44.57-38.52-69.13-54.9-11.79-7.87-23.86-15.26-37.67-19.23a15,15,0,0,0-10,.17c-3.81,1.52-6.46,4.16-7,8.33s1.36,7.19,4.59,9.54a16,16,0,0,0,2.89,1.79c13,5.81,24.87,13.58,36.22,22,20.72,15.42,41.1,31.29,61.58,47C837.13,236.75,840.35,238.62,844.4,238.59ZM789.53,95.93c-8.2-.06-12.67,2.95-14,8-1.25,4.58,1.23,9.17,6.54,12.1.54.3,1.11.54,1.65.84,8.47,4.75,17.22,9.05,25.33,14.34,25.25,16.46,48.67,35.37,72,54.42a19.2,19.2,0,0,0,5.85,3.35c5.92,2,12.32-.26,15-5s1.6-9.59-3.86-14.14c-16.76-14-33.42-28.07-50.57-41.53-14.08-11-29-21-45.5-28.2C797.29,98.15,792.37,96.88,789.53,95.93Zm34.15,82.38c1.43-.51,4.56-1.11,7.12-2.64,7.27-4.37,7.29-13,.29-17.77a16.75,16.75,0,0,0-19.16.46,10,10,0,0,0-.72,16C814.29,177.13,818,178.18,823.68,178.31Z"/><path class="cls-10" d="M844.4,238.59c-4,0-7.27-1.84-10.38-4.24-20.48-15.74-40.86-31.61-61.58-47-11.35-8.44-23.22-16.21-36.22-22a16,16,0,0,1-2.89-1.79c-3.23-2.35-5.16-5.44-4.59-9.54s3.23-6.81,7-8.33a15,15,0,0,1,10-.17c13.81,4,25.88,11.36,37.67,19.23C808,181.08,830.59,200,852.59,219.6c3.71,3.31,4.91,8,3.3,12.07C854.21,235.91,849.69,238.63,844.4,238.59Z"/><path class="cls-10" d="M789.53,95.93c2.84.95,7.76,2.22,12.36,4.21,16.54,7.15,31.42,17.15,45.5,28.2,17.15,13.46,33.81,27.57,50.57,41.53,5.46,4.55,6.56,9.39,3.86,14.14s-9.07,7-15,5a19.2,19.2,0,0,1-5.85-3.35c-23.3-19.05-46.72-38-72-54.42-8.11-5.29-16.86-9.59-25.33-14.34-.54-.3-1.11-.54-1.65-.84-5.31-2.93-7.79-7.52-6.54-12.1C776.86,98.88,781.33,95.87,789.53,95.93Z"/><path class="cls-10" d="M823.68,178.31c-5.68-.13-9.39-1.18-12.47-3.91a10,10,0,0,1,.72-16,16.75,16.75,0,0,1,19.16-.46c7,4.77,7,13.4-.29,17.77C828.24,177.2,825.11,177.8,823.68,178.31Z"/></svg>