<svg id="Layer_1" data-name="Layer 1" xmlns="http://www.w3.org/2000/svg" viewBox="0 0 1021.13 471.42"><defs><style>.cls-1{fill:#75d3a1;}.cls-2{fill:#b2f7cf;}.cls-3{fill:#5db583;}</style></defs><title>symoblic product</title><path class="cls-1" d="M727.49,576.46c-3.86-15.19-7.25-30.51-10.94-45.75a12.63,12.63,0,0,0-11.4-9.45c-6.68-.59-11.56,4.93-10.13,11.94,2.51,12.37,4.89,24.8,8.08,37,4,15.37,8.6,30.56,13.22,45.77,1.39,4.63,3.69,9,5.45,13.56l2.91-4.82c-2.94-8.18-6.16-16.29-8.64-24.6-3.79-12.71-7.23-25.56-10.4-38.45-2.46-10-4.3-20.18-6.34-30.3-.49-2.43-1-5.19,1.37-6.88,2.66-1.9,5.65-1.44,8.41.1a11.64,11.64,0,0,1,5.86,8.06c3,13.52,5.91,27.08,9.39,40.48,2.94,11.37,6.7,22.54,9.94,33.82a6,6,0,0,1,.21,1.46l1.5-2.48C733.13,596.1,730,586.36,727.49,576.46Z" transform="translate(-29.87 -238)"/><path class="cls-1" d="M1046.54,524.55c-4.35,28.83-12.25,56.65-25,83-7.92,16.37-17.57,31.63-30.18,44.82-13,13.64-28.19,23.76-47.09,27.42-8.77,1.71-17.54.89-26.34.64-64.21-1.71-128.42-2.17-192.65-.2-5.57.17-10.48,2.2-15,5.08C704.36,689,698.6,693,692.88,697a42.75,42.75,0,0,1-22.07,7.85c-45,3.41-90.06,4-135.15,4.37-84.53.75-169-.78-253.53-2.27-37.71-.67-75.41-1.53-113.12-2.3-1,0-12.58,0-32.63-2a4.31,4.31,0,0,0-.93-.57c-22.22-5.93-39.16-19.46-53.18-37.12-18-22.61-29.53-48.46-37.59-75.93-15.7-53.51-18.16-107.93-10.94-163,4.07-31,11.68-61.09,23.93-89.9C68.36,311.06,82,287.82,101.8,268.61c18.62-18.1,40.69-28.35,66.92-28.55,99-.77,197.92-1.79,296.9-2.05,60-.15,120,1.2,179.93,5,14,.87,28,2.3,42.06,3.43,7.52.61,13,5.25,18.66,9.46,4.91,3.64,9.75,7.4,14.79,10.85a25,25,0,0,0,13,4q101.28,6.06,202.64,2.56c26.26-.92,46.16,9.87,63,28.3,17.65,19.29,28.65,42.38,36.46,67C1052.33,419.74,1054.45,471.85,1046.54,524.55Z" transform="translate(-29.87 -238)"/><path class="cls-2" d="M1025,556.59c-7.26,26.29-17.83,51.09-34.31,73.08-2.69,3.59-5.64,7-7.3,9-10.86,11.37-21.55,19.83-34.77,24.44-19.9,6.93-38.51,3.65-55.72-8-16.85-11.43-28.34-27.45-37.54-45.26-13.94-27-21.19-55.93-24.65-85.9-5.54-47.92-1.33-95,13.88-140.85,7.2-21.76,17-42.24,31.41-60.27,10.56-13.26,22.76-24.6,38.82-31,20.6-8.15,40-5.35,58.14,6.95,17.13,11.62,28.52,28.06,37.65,46.21,13.88,27.54,21,57,24.18,87.51C1039.2,474.46,1036.27,515.88,1025,556.59Z" transform="translate(-29.87 -238)"/><path class="cls-3" d="M629.08,253.86c-5.76,2.58-11.74,4.84-17.32,7.83-13.07,7-24,16.64-33.54,27.94C552.56,320.06,538.15,355.84,529,394a372,372,0,0,0-9.44,104.6c0,.85.21,1.69.37,2.84l-79.17,1.18-.05-.05s0,0,0,.05c-4.57,0-9.12-.13-13.67,0a4.28,4.28,0,0,0-2.59,1.49,54.91,54.91,0,0,0-5,6.26,6.76,6.76,0,0,0-.79,3.78c.22,4.76.63,9.51,1,14.76-110.23,1.41-220.21,2.84-330.67,4.26,1.06-3.31,2-6.34,3-9.37q35.88-109.76,71.79-219.51c1.48-4.55,3.11-9.05,4.41-13.67.64-2.28,1.77-2.84,4-2.87q78.65-1.18,157.32-2.5,87.14-1.39,174.26-2.85a8,8,0,0,0,5-2c9.12-8.73,19.09-16.21,30.65-21.44A75.69,75.69,0,0,1,573.71,252c17.88.6,35.78,1.11,53.66,1.65C628,253.71,628.61,253.81,629.08,253.86Z" transform="translate(-29.87 -238)"/><path class="cls-3" d="M766.27,516.22c-3,20.51-7.34,40.78-14.38,60.37A9.63,9.63,0,0,1,749,580.5c-3.2,2.63-4.3,5.84-3.94,9.9a14.77,14.77,0,0,1-.71,6c-1.15,3.3-2.77,6.44-4.2,9.64l-.87-.1-1.49,2.48L728,624.71l-2.38,3.95a2.57,2.57,0,0,0-.29,1.76,3.3,3.3,0,0,1-.23,2.22c-12.34,18.79-27.07,35.21-47.3,45.82-20.86,10.93-42.21,11.94-63.87,2.3a7.16,7.16,0,0,1-2.92-2.22c3.33-.13,6.68-.28,10-.43,2.41-.1,7.35-4.51,7.47-6.91a4.1,4.1,0,0,0-1.1-2.51c-17.23-20-28.89-43.11-37.36-67.93a301.61,301.61,0,0,1-14.24-62c-1.31-11.11-2.15-22.26-3.25-33.39-.45-4.55-.49-4.53-5-4.48-11.94.17-23.87.32-36,.48a2.4,2.4,0,0,1-2.46-2.19v0c-2.13-49.59,3.91-98,21.32-144.71,8.31-22.25,19.18-43.19,34.42-61.59,12.43-15,26.93-27.52,45.74-34,20.79-7.13,40.74-4.7,59.63,6.37,19.82,11.63,33.73,28.87,45,48.44,17.31,30.06,26.48,62.84,31.37,96.9A363.8,363.8,0,0,1,766.27,516.22Z" transform="translate(-29.87 -238)"/><path class="cls-3" d="M629.49,690.35a14.23,14.23,0,0,1-1.84.23c-24.3-.14-48.59-.12-72.88-.53-9.59-.15-18.59-3.33-27.18-7.52-.39-.2-.74-.46-1.1-.69,0-.36,0-.72.09-1.1,5.23,0,10.47.23,15.69.07,18-.58,36-1.32,53.94-1.86A9.78,9.78,0,0,1,601,680.2,88.15,88.15,0,0,0,629.49,690.35Z" transform="translate(-29.87 -238)"/><path class="cls-3" d="M89,546.86s3.29,80.47,65.69,131.38l335,3.29c-65.69-52.55-69-137.95-69-137.95Z" transform="translate(-29.87 -238)"/></svg>